<svg id="Layer_1" data-name="Layer 1" xmlns="http://www.w3.org/2000/svg" viewBox="0 0 100 100"><defs><style>.cls-1{fill:#ffd44c;opacity:0.99;}</style></defs><path class="cls-1" d="M50,0a50,50,0,1,0,50,50A50,50,0,0,0,50,0ZM83.48,52.07a2.64,2.64,0,0,1-2.64,2.64H54.71V80.84a2.64,2.64,0,0,1-2.64,2.64H47.93a2.64,2.64,0,0,1-2.64-2.64V54.71H19.16a2.64,2.64,0,0,1-2.64-2.64V47.93a2.64,2.64,0,0,1,2.64-2.64H45.29V19.16a2.64,2.64,0,0,1,2.64-2.64h4.14a2.64,2.64,0,0,1,2.64,2.64V45.29H80.84a2.64,2.64,0,0,1,2.64,2.64Z"/></svg>