<svg id="Layer_1" data-name="Layer 1" xmlns="http://www.w3.org/2000/svg" viewBox="0 0 3480.47 1091.35"><defs><style>.cls-1,.cls-2{fill:#3b1a73;}.cls-2{font-size:935.98px;font-family:IvyPrestoHeadline-Bold, IvyPresto Headline;font-weight:700;}.cls-3{letter-spacing:-0.02em;}.cls-4{letter-spacing:0em;}.cls-5{letter-spacing:-0.01em;}.cls-6{letter-spacing:-0.04em;}</style></defs><path class="cls-1" d="M3479.2,464.36,3372.54,826.21c-4.31,14.63-18.93,24.8-35.65,24.8H3025c-16.71,0-31.34-10.17-35.65-24.8L2882.72,464.36c-6.25-21.22,11.4-42,35.65-42h525.18C3467.8,422.32,3485.46,443.14,3479.2,464.36Z"/><path class="cls-1" d="M2927,422.32"/><path class="cls-1" d="M3201,57.65c-25.42,112.2,11.91,195.48,11.91,195.48s41.13,92.05,31.92,169.19H3117.12c20.52-60.27,31.92-169.19,31.92-169.19S3163.72,128.22,3201,57.65Z"/><path class="cls-1" d="M3340.79,314.06"/><path class="cls-1" d="M3201,57.65S3094,184.41,3065.32,240c-27.61,53.6-27.61,89.85-34.19,182.34h-93.58c-10.52-82-15.34-173.13,61.37-202.28C3021.27,144,3201,57.65,3201,57.65Z"/><path class="cls-1" d="M3201,57.65S3273.63,184.41,3302.25,240c27.61,53.6,27.62,89.85,34.19,182.34H3430c10.52-82,15.34-173.13-61.36-202.28C3346.3,144,3201,57.65,3201,57.65Z"/><text class="cls-2" transform="translate(2.8 808.69)"><tspan class="cls-3">J</tspan><tspan class="cls-4" x="324.79" y="0">ess</tspan><tspan class="cls-5" x="1605.2" y="0">e</tspan><tspan class="cls-6" x="2062.91" y="0">’</tspan><tspan x="2267.88" y="0">s</tspan></text></svg>